<svg width="61" height="61" viewBox="0 0 61 61" fill="none" xmlns="http://www.w3.org/2000/svg">
<path id="Vector" d="M57.1781 13.6452L46.4493 2.91645C44.5681 1.03532 42.0693 0 39.4091 0H21.5909C18.9307 0 16.4319 1.03532 14.5507 2.91645L3.82193 13.6452C1.35821 16.1089 0 19.3833 0 22.8683V38.1279C0 41.6129 1.35821 44.8873 3.82193 47.351L14.5507 58.0797C16.4038 59.9328 18.9693 60.9962 21.5909 60.9962H39.4091C42.0307 60.9962 44.5962 59.9328 46.4493 58.0797L57.1781 47.351C59.6418 44.8873 61 41.6129 61 38.1279V22.8683C61 19.3833 59.6418 16.1089 57.1781 13.6452ZM14.3717 10.5813L18.2954 6.65764C19.1693 5.78376 20.3556 5.29242 21.5909 5.29242H39.4091C40.6444 5.29242 41.8307 5.78376 42.7046 6.65764L46.6283 10.5813C47.9689 11.922 48.6182 13.8066 48.3831 15.6877L48.3409 16.0352C48.1935 17.2284 47.7022 18.3515 46.9231 19.2675L40.855 26.413L32.5619 16.6494C32.2881 16.3265 31.888 16.1405 31.4669 16.1405H29.5331C29.112 16.1405 28.7119 16.3265 28.4381 16.6494L21.6892 24.5985L25.1602 28.6872L29.677 23.3702H31.3265L37.384 30.5016L30.9791 38.0436H30.0245L29.2172 37.0926L29.1997 37.1066L15.1263 20.538L15.1438 20.5239L14.0734 19.264C13.2943 18.348 12.8029 17.2249 12.6555 16.0317L12.6134 15.6877C12.3818 13.8066 13.0276 11.922 14.3717 10.5813ZM8.6476 38.9316L7.77723 39.0053C6.47166 39.1141 5.3486 38.0963 5.33807 36.7872C5.30999 33.046 5.28894 26.3042 5.28894 26.3042C5.28894 24.3318 6.98406 22.7349 9.03015 22.942C9.93562 23.0333 10.7498 23.5316 11.3395 24.223L16.6705 30.4981L10.1778 38.1454C9.79173 38.5982 9.24423 38.8824 8.65111 38.9316H8.6476ZM55.6549 36.7872C55.6444 38.0963 54.5213 39.1141 53.2158 39.0053L52.3454 38.9316C51.7523 38.8824 51.2013 38.5982 50.8187 38.1454L45.8772 32.3301L42.4062 36.4187L47.3126 42.1955C47.7162 42.6693 47.9022 43.2869 47.8356 43.9046L47.4074 47.723C47.2495 49.1198 46.6248 50.4254 45.628 51.4186L42.7046 54.342C41.8307 55.2159 40.6444 55.7073 39.4091 55.7073H21.5909C20.3556 55.7073 19.1693 55.2159 18.2954 54.342L15.372 51.4186C14.3787 50.4254 13.7505 49.1198 13.5926 47.723L13.1644 43.9046C13.0942 43.2869 13.2838 42.6693 13.6874 42.1955L20.1485 34.5902L28.4311 44.3398C28.7048 44.6627 29.1049 44.8487 29.5261 44.8487H31.4809C31.9021 44.8487 32.3022 44.6627 32.5759 44.3398L34.9414 41.5567L48.9657 25.0407L49.6605 24.2265C50.2502 23.5351 51.0644 23.0368 51.9699 22.9455C54.0159 22.7384 55.7111 24.3353 55.7111 26.3077C55.7111 26.3077 55.6935 33.0495 55.6619 36.7907L55.6549 36.7872Z" fill="white"/>
</svg>
